<svg width="308" height="80" viewBox="0 0 308 80" fill="none" xmlns="http://www.w3.org/2000/svg">
<g filter="url(#filter0_d_861_3182)">
<rect x="3" y="2" width="302" height="74" rx="2" fill="#FAFAFA"/>
<rect x="2.5" y="1.5" width="303" height="75" rx="2.5" stroke="#D6D6D6"/>
<path d="M178.346 42C177.543 42 177.011 41.7153 176.75 41.146C176.423 41.7153 175.747 42 174.72 42C173.88 42 173.241 41.7993 172.802 41.398C172.373 40.9967 172.158 40.4367 172.158 39.718V38.85C172.158 38.2713 172.317 37.8373 172.634 37.548H172.004C171.463 37.548 171.038 37.6927 170.73 37.982C170.431 38.262 170.282 38.6587 170.282 39.172V45.416H169.12V39.172C169.12 38.3227 169.386 37.646 169.918 37.142C170.45 36.6287 171.169 36.372 172.074 36.372H174.944C175.728 36.372 176.321 36.5727 176.722 36.974C177.133 37.366 177.338 37.9213 177.338 38.64V39.606C177.338 40.3993 177.674 40.796 178.346 40.796H178.71C178.803 40.796 178.85 41.0013 178.85 41.412C178.85 41.804 178.803 42 178.71 42H178.346ZM174.762 40.796C175.705 40.796 176.176 40.3947 176.176 39.592V38.752C176.176 38.3787 176.064 38.0847 175.84 37.87C175.625 37.6553 175.327 37.548 174.944 37.548H174.496C174.113 37.548 173.819 37.66 173.614 37.884C173.418 38.108 173.32 38.4067 173.32 38.78V39.494C173.32 39.9513 173.437 40.2827 173.67 40.488C173.913 40.6933 174.277 40.796 174.762 40.796ZM180.385 40.796C180.749 40.796 181.038 40.7027 181.253 40.516C181.468 40.3293 181.575 40.0773 181.575 39.76V37.492H182.737V39.732C182.737 40.0773 182.83 40.3433 183.017 40.53C183.213 40.7073 183.493 40.796 183.857 40.796H184.249C184.342 40.796 184.389 40.9967 184.389 41.398C184.389 41.7993 184.342 42 184.249 42H183.815C182.956 42 182.396 41.7247 182.135 41.174C181.808 41.7247 181.225 42 180.385 42H178.705C178.612 42 178.565 41.804 178.565 41.412C178.565 41.0013 178.612 40.796 178.705 40.796H180.385ZM183.031 34.706V35.812H179.335V34.706H183.031ZM185.348 40.796C185.759 40.796 186.076 40.698 186.3 40.502C186.533 40.306 186.65 40.0353 186.65 39.69V37.492H187.826V39.69C187.826 40.4273 188.241 40.796 189.072 40.796C189.483 40.796 189.8 40.698 190.024 40.502C190.257 40.306 190.374 40.0353 190.374 39.69V37.492H191.536V39.69C191.536 40.0447 191.634 40.32 191.83 40.516C192.035 40.7027 192.334 40.796 192.726 40.796C193.109 40.796 193.403 40.698 193.608 40.502C193.823 40.306 193.93 40.0353 193.93 39.69V37.492H195.092V39.69C195.092 40.4273 195.461 40.796 196.198 40.796H196.604C196.707 40.796 196.758 41.0013 196.758 41.412C196.758 41.6547 196.744 41.8133 196.716 41.888C196.688 41.9627 196.651 42 196.604 42H196.198C195.302 42 194.723 41.7247 194.462 41.174C194.135 41.7247 193.557 42 192.726 42C191.783 42 191.177 41.7107 190.906 41.132C190.561 41.7107 189.949 42 189.072 42C188.083 42 187.453 41.7107 187.182 41.132C186.837 41.7107 186.225 42 185.348 42H184.256C184.163 42 184.116 41.804 184.116 41.412C184.116 41.0013 184.163 40.796 184.256 40.796H185.348ZM198.295 40.796C198.659 40.796 198.949 40.7027 199.163 40.516C199.378 40.3293 199.485 40.0773 199.485 39.76V37.492H200.647V39.732C200.647 40.0773 200.741 40.3433 200.927 40.53C201.123 40.7073 201.403 40.796 201.767 40.796H202.159C202.253 40.796 202.299 40.9967 202.299 41.398C202.299 41.7993 202.253 42 202.159 42H201.725C200.867 42 200.307 41.7247 200.045 41.174C199.719 41.7247 199.135 42 198.295 42H196.615C196.522 42 196.475 41.804 196.475 41.412C196.475 41.0013 196.522 40.796 196.615 40.796H198.295ZM199.499 43.764V44.87H195.803V43.764H199.499ZM205.918 39.774C205.918 40.4647 205.708 41.0107 205.288 41.412C204.868 41.804 204.313 42 203.622 42H202.166C202.073 42 202.026 41.804 202.026 41.412C202.026 41.0013 202.073 40.796 202.166 40.796H203.622C203.958 40.796 204.229 40.7073 204.434 40.53C204.649 40.3433 204.756 40.0867 204.756 39.76V37.492H205.918V39.774ZM203.79 35.812V34.65H205.274V35.812H203.79ZM218.979 40.796C219.315 40.796 219.586 40.7027 219.791 40.516C219.996 40.3293 220.099 40.082 220.099 39.774V37.492H221.261V39.802C221.261 40.4833 221.051 41.02 220.631 41.412C220.22 41.804 219.67 42 218.979 42H213.967C213.146 42 212.525 41.7853 212.105 41.356C211.694 40.9267 211.489 40.334 211.489 39.578V37.492H212.651V39.424C212.651 40.3387 213.113 40.796 214.037 40.796H218.979ZM218.209 35.21V36.316H214.513V35.21H218.209ZM226.181 40.796C226.227 40.796 226.26 40.838 226.279 40.922C226.307 40.9967 226.321 41.16 226.321 41.412C226.321 41.6547 226.307 41.8133 226.279 41.888C226.26 41.9627 226.227 42 226.181 42H225.817C225.107 42 224.566 41.79 224.193 41.37C223.829 40.9407 223.647 40.334 223.647 39.55V32.942H224.809V39.494C224.809 40.362 225.163 40.796 225.873 40.796H226.181ZM229.94 39.774C229.94 40.4647 229.73 41.0107 229.31 41.412C228.89 41.804 228.334 42 227.644 42H226.188C226.094 42 226.047 41.804 226.047 41.412C226.047 41.0013 226.094 40.796 226.188 40.796H227.644C227.98 40.796 228.25 40.7073 228.456 40.53C228.67 40.3433 228.778 40.0867 228.778 39.76V37.492H229.94V39.774ZM226.566 44.926V43.764H228.05V44.926H226.566ZM234.184 41.594C234.184 42.3687 234.03 43.0453 233.722 43.624C233.414 44.2027 232.98 44.646 232.42 44.954C231.87 45.262 231.235 45.416 230.516 45.416H230.124L230.012 44.212H230.488C231.282 44.212 231.902 43.9787 232.35 43.512C232.798 43.0547 233.022 42.4153 233.022 41.594V37.492H234.184V41.594ZM247.855 39.802C247.855 40.11 247.948 40.3527 248.135 40.53C248.331 40.7073 248.601 40.796 248.947 40.796H249.213C249.306 40.796 249.353 41.0013 249.353 41.412C249.353 41.804 249.306 42 249.213 42H248.989C248.746 42 248.522 41.9627 248.317 41.888C248.111 41.8133 247.957 41.7153 247.855 41.594V41.762C247.845 42.4713 247.677 43.1013 247.351 43.652C247.024 44.212 246.576 44.646 246.007 44.954C245.437 45.262 244.784 45.416 244.047 45.416H243.431C242.255 45.416 241.349 45.0753 240.715 44.394C240.08 43.7127 239.763 42.7607 239.763 41.538V38.892H240.925V41.51C240.925 42.3967 241.139 43.0687 241.569 43.526C241.998 43.9833 242.628 44.212 243.459 44.212H244.047C244.849 44.212 245.489 43.9787 245.965 43.512C246.45 43.0453 246.693 42.4153 246.693 41.622V37.492H247.855V39.802ZM242.787 37.072V35.91H244.271V37.072H242.787ZM249.533 40.796C250.196 40.796 250.527 40.4973 250.527 39.9V39.326C250.527 38.43 250.765 37.7253 251.241 37.212C251.717 36.6987 252.37 36.442 253.201 36.442C254.032 36.442 254.671 36.6847 255.119 37.17C255.567 37.6553 255.791 38.3553 255.791 39.27C255.791 40.138 255.558 40.81 255.091 41.286C254.624 41.762 253.98 42 253.159 42C252.188 42 251.535 41.7107 251.199 41.132C251.04 41.4307 250.83 41.65 250.569 41.79C250.308 41.93 249.962 42 249.533 42H249.211C249.118 42 249.071 41.804 249.071 41.412C249.071 41.0013 249.118 40.796 249.211 40.796H249.533ZM254.629 39.27C254.629 38.1687 254.139 37.618 253.159 37.618C252.664 37.618 252.296 37.758 252.053 38.038C251.81 38.318 251.689 38.7473 251.689 39.326C251.689 39.7833 251.815 40.1427 252.067 40.404C252.328 40.6653 252.692 40.796 253.159 40.796C254.139 40.796 254.629 40.2873 254.629 39.27Z" fill="black"/>
<rect x="270" y="26" width="26" height="26" rx="2" fill="white"/>
<rect x="270" y="26" width="26" height="26" rx="2" stroke="#C1C1C1" stroke-width="2"/>
<g clip-path="url(#clip0_861_3182)">
<path d="M58.3061 26.2118C58.3053 25.987 58.3001 25.7633 58.2901 25.5407V12.8508L54.7818 16.359C51.9105 12.8444 47.5425 10.5996 42.65 10.5996C37.5584 10.5996 33.0351 13.0299 30.1758 16.7936L35.9262 22.6045C36.4898 21.5623 37.2904 20.6671 38.2556 19.991C39.2596 19.2076 40.6821 18.567 42.6498 18.567C42.8875 18.567 43.071 18.5948 43.2058 18.6471C45.6438 18.8395 47.7571 20.185 49.0014 22.1379L44.931 26.2083C50.0867 26.1881 55.9111 26.1762 58.3056 26.2109" fill="#1C3AA9"/>
<path d="M42.5585 10.6006C42.3337 10.6013 42.11 10.6065 41.8874 10.6166H29.1975L32.7057 14.1249C29.1911 16.9962 26.9463 21.3642 26.9463 26.2567C26.9463 31.3482 29.3766 35.8715 33.1403 38.7309L38.9512 32.9804C37.909 32.4169 37.0138 31.6163 36.3377 30.651C35.5543 29.6471 34.9137 28.2246 34.9137 26.2569C34.9137 26.0192 34.9414 25.8357 34.9938 25.7009C35.1862 23.2629 36.5317 21.1496 38.4846 19.9052L42.555 23.9757C42.5348 18.82 42.5229 12.9956 42.5576 10.601" fill="#4285F4"/>
<path d="M26.9468 26.2559C26.9475 26.4807 26.9527 26.7044 26.9628 26.927V39.6169L30.471 36.1087C33.3424 39.6233 37.7104 41.8681 42.6029 41.8681C47.6944 41.8681 52.2177 39.4378 55.0771 35.6741L49.3266 29.8632C48.7631 30.9054 47.9625 31.8006 46.9972 32.4767C45.9933 33.2602 44.5708 33.9007 42.6031 33.9007C42.3654 33.9007 42.1819 33.8729 42.0471 33.8206C39.609 33.6282 37.4958 32.2827 36.2514 30.3298L40.3219 26.2594C35.1662 26.2796 29.3418 26.2915 26.9472 26.2568" fill="#ABABAB"/>
<path d="M29.5886 47.9317C29.2072 47.9317 28.8653 48.0041 28.5628 48.1487C28.2604 48.2901 28.0039 48.4923 27.7935 48.7553C27.5864 49.0183 27.427 49.3372 27.3152 49.7119C27.2067 50.0834 27.1524 50.4993 27.1524 50.9595V52.2861C27.1524 52.7496 27.2067 53.1671 27.3152 53.5386C27.427 53.9101 27.5848 54.2274 27.7886 54.4904C27.9924 54.7534 28.239 54.9555 28.5283 55.0969C28.8176 55.2383 29.1431 55.309 29.5047 55.309C29.8762 55.309 30.2017 55.2547 30.4811 55.1462C30.7638 55.0378 31.0005 54.8816 31.1912 54.6778C31.3819 54.4707 31.5282 54.2208 31.6301 53.9282C31.7353 53.6356 31.7978 53.3036 31.8175 52.9321H30.9052C30.8822 53.2181 30.8427 53.463 30.7868 53.6668C30.731 53.8674 30.6488 54.0334 30.5403 54.1649C30.4351 54.2931 30.297 54.3884 30.126 54.4509C29.9584 54.5101 29.7512 54.5397 29.5047 54.5397C29.2417 54.5397 29.0181 54.4821 28.834 54.3671C28.6499 54.2487 28.5003 54.0876 28.3853 53.8838C28.2735 53.68 28.1913 53.4416 28.1387 53.1688C28.0894 52.8959 28.0648 52.6017 28.0648 52.286V50.9497C28.0648 50.6111 28.0943 50.3036 28.1535 50.0275C28.216 49.7513 28.3097 49.5163 28.4346 49.3223C28.5595 49.1283 28.7173 48.9787 28.908 48.8736C29.0987 48.7651 29.3256 48.7108 29.5885 48.7108C29.8088 48.7108 29.9978 48.7437 30.1556 48.8094C30.3134 48.8719 30.4449 48.9705 30.5501 49.1053C30.6553 49.2368 30.7359 49.4045 30.7918 49.6083C30.8477 49.8121 30.8855 50.0554 30.9052 50.3381H31.8175C31.8011 49.9502 31.7402 49.6067 31.635 49.3075C31.5298 49.0083 31.3835 48.7568 31.1962 48.553C31.0088 48.3492 30.7803 48.1946 30.5107 48.0894C30.2444 47.9842 29.937 47.9316 29.5885 47.9316L29.5886 47.9317ZM51.8586 47.9317C51.4773 47.9317 51.1354 48.0041 50.8329 48.1487C50.5304 48.2901 50.274 48.4923 50.0636 48.7553C49.8565 49.0183 49.697 49.3372 49.5853 49.7119C49.4768 50.0834 49.4225 50.4993 49.4225 50.9595V52.2861C49.4225 52.7496 49.4768 53.1671 49.5853 53.5386C49.697 53.9101 49.8548 54.2274 50.0587 54.4904C50.2625 54.7534 50.5091 54.9555 50.7984 55.0969C51.0877 55.2383 51.4131 55.309 51.7748 55.309C52.1463 55.309 52.4717 55.2547 52.7512 55.1462C53.0339 55.0378 53.2706 54.8816 53.4613 54.6778C53.652 54.4707 53.7983 54.2208 53.9002 53.9282C54.0054 53.6356 54.0679 53.3036 54.0876 52.9321H53.1753C53.1523 53.2181 53.1129 53.463 53.057 53.6668C53.0011 53.8674 52.9189 54.0334 52.8104 54.1649C52.7052 54.2931 52.5671 54.3884 52.3961 54.4509C52.2285 54.5101 52.0214 54.5397 51.7748 54.5397C51.5118 54.5397 51.2882 54.4821 51.1042 54.3671C50.9201 54.2487 50.7705 54.0876 50.6554 53.8838C50.5436 53.68 50.4614 53.4416 50.4088 53.1688C50.3595 52.8959 50.3349 52.6017 50.3349 52.286V50.9497C50.3349 50.6111 50.3645 50.3036 50.4236 50.0275C50.4861 49.7513 50.5798 49.5163 50.7047 49.3223C50.8297 49.1283 50.9875 48.9787 51.1781 48.8736C51.3688 48.7651 51.5956 48.7108 51.8586 48.7108C52.0789 48.7108 52.2679 48.7437 52.4257 48.8094C52.5835 48.8719 52.715 48.9705 52.8202 49.1053C52.9254 49.2368 53.006 49.4045 53.0619 49.6083C53.1177 49.8121 53.1555 50.0554 53.1753 50.3381H54.0876C54.0711 49.9502 54.0103 49.6067 53.9051 49.3075C53.7999 49.0083 53.6536 48.7568 53.4662 48.553C53.2788 48.3491 53.0503 48.1946 52.7808 48.0894C52.5145 47.9842 52.2071 47.9316 51.8586 47.9316L51.8586 47.9317ZM34.7865 48.0304L32.4737 55.2103H33.4008L33.958 53.3364H36.3842L36.9513 55.2103H37.8784L35.5607 48.0304H34.7865ZM38.8547 48.0304V55.2103H39.7571V52.3994H41.1428C41.488 52.3994 41.7938 52.3518 42.0601 52.2564C42.3263 52.1578 42.5499 52.0164 42.7307 51.8323C42.9148 51.6482 43.0529 51.4214 43.1449 51.1518C43.2403 50.8789 43.2879 50.5699 43.2879 50.2247C43.2879 49.9058 43.2403 49.6132 43.1449 49.3469C43.0529 49.0773 42.9164 48.8456 42.7356 48.6516C42.5548 48.4543 42.3296 48.3015 42.0601 48.193C41.7938 48.0845 41.488 48.0303 41.1428 48.0303L38.8547 48.0304ZM43.9783 48.0304V48.8095H45.8621V55.2103H46.7645V48.8095H48.6532V48.0304H43.9783ZM55.3056 48.0304V55.2103H56.208V51.8915H59.0978V55.2103H60.0051V48.0304H59.0978V51.1174H56.208V48.0304H55.3056ZM63.4275 48.0304L61.1147 55.2103H62.0418L62.599 53.3364H65.0252L65.5923 55.2103H66.5194L64.2017 48.0304H63.4275ZM39.757 48.8095H41.1427C41.363 48.8095 41.5504 48.8489 41.7049 48.9279C41.8627 49.0067 41.9909 49.1119 42.0895 49.2435C42.1915 49.375 42.2654 49.5278 42.3115 49.7021C42.3608 49.873 42.3854 50.0505 42.3854 50.2347C42.3854 50.4385 42.3608 50.6259 42.3115 50.7968C42.2654 50.9645 42.1915 51.1108 42.0895 51.2357C41.9909 51.3573 41.8627 51.4527 41.7049 51.5217C41.5504 51.5908 41.363 51.6253 41.1427 51.6253H39.757V48.8095ZM35.171 49.2928L36.1523 52.5573H34.1946L35.171 49.2928ZM63.812 49.2928L64.7934 52.5573H62.8356L63.812 49.2928ZM21.3342 49.7761C21.1073 49.7761 20.9117 49.8336 20.7473 49.9487C20.5862 50.0637 20.4514 50.2199 20.343 50.4171L20.3282 49.8747H19.48V55.2103H20.3528V51.3934C20.435 51.1665 20.5517 50.9874 20.703 50.8559C20.8575 50.7244 21.0531 50.6586 21.2898 50.6586C21.3654 50.6586 21.4328 50.662 21.492 50.6685C21.5512 50.6718 21.6153 50.68 21.6843 50.6931L21.6794 49.8449C21.6662 49.8383 21.6449 49.8317 21.6153 49.8252C21.589 49.8153 21.5594 49.8071 21.5265 49.8005C21.4936 49.794 21.4591 49.789 21.4229 49.7857C21.3901 49.7791 21.3605 49.7759 21.3342 49.7759L21.3342 49.7761ZM24.2683 49.7761C24.0151 49.7761 23.7702 49.8204 23.5335 49.9092C23.2968 49.998 23.0864 50.1443 22.9023 50.3481C22.7215 50.5486 22.5752 50.8116 22.4634 51.1371C22.3517 51.4593 22.2958 51.8554 22.2958 52.3256V52.9272C22.2958 53.3348 22.3435 53.6883 22.4388 53.9874C22.5341 54.2866 22.6706 54.5348 22.8481 54.7321C23.0289 54.926 23.2475 55.0707 23.504 55.166C23.7604 55.2614 24.048 55.3091 24.3669 55.3091C24.5971 55.3091 24.8026 55.286 24.9834 55.24C25.1675 55.194 25.3302 55.1348 25.4716 55.0625C25.6129 54.9869 25.7346 54.9014 25.8365 54.8061C25.9384 54.7107 26.0255 54.6121 26.0978 54.5102L25.6442 53.9579C25.5718 54.0466 25.4946 54.1288 25.4124 54.2044C25.3302 54.2768 25.2398 54.3409 25.1412 54.3968C25.0425 54.4494 24.9341 54.4905 24.8157 54.52C24.6974 54.5496 24.5642 54.5644 24.4163 54.5644C24.0119 54.5644 23.7012 54.4346 23.4842 54.1748C23.2706 53.9151 23.1637 53.4993 23.1637 52.9272V52.8039H26.1422V52.296C26.1422 51.8884 26.1077 51.5283 26.0387 51.216C25.9696 50.9037 25.8595 50.6407 25.7083 50.427C25.5571 50.2133 25.3631 50.0522 25.1264 49.9437C24.8897 49.832 24.6037 49.7761 24.2683 49.7761L24.2683 49.7761ZM24.2683 50.5256C24.459 50.5256 24.6168 50.5601 24.7417 50.6292C24.8666 50.6982 24.9653 50.7952 25.0376 50.9201C25.1132 51.0451 25.1675 51.1947 25.2003 51.3689C25.2365 51.5398 25.2595 51.7289 25.2694 51.936V52.0543H23.1686C23.1818 51.7552 23.2179 51.5069 23.2771 51.3097C23.3363 51.1124 23.4135 50.9563 23.5089 50.8412C23.6075 50.7229 23.7209 50.6407 23.8491 50.5947C23.9774 50.5486 24.1171 50.5256 24.2683 50.5256L24.2683 50.5256Z" fill="#A6A6A6"/>
</g>
<path d="M17.9805 64.8789H16.5V64.1016H17.9805C18.2383 64.1016 18.4466 64.0599 18.6055 63.9766C18.7643 63.8932 18.8802 63.7786 18.9531 63.6328C19.0286 63.4844 19.0664 63.3151 19.0664 63.125C19.0664 62.9453 19.0286 62.7773 18.9531 62.6211C18.8802 62.4622 18.7643 62.3346 18.6055 62.2383C18.4466 62.1419 18.2383 62.0938 17.9805 62.0938H16.8008V67H15.8203V61.3125H17.9805C18.4206 61.3125 18.7943 61.3906 19.1016 61.5469C19.4115 61.7005 19.6471 61.9141 19.8086 62.1875C19.9701 62.4583 20.0508 62.7682 20.0508 63.1172C20.0508 63.4844 19.9701 63.7995 19.8086 64.0625C19.6471 64.3255 19.4115 64.5273 19.1016 64.668C18.7943 64.8086 18.4206 64.8789 17.9805 64.8789ZM21.7812 63.5781V67H20.8398V62.7734H21.7383L21.7812 63.5781ZM23.0742 62.7461L23.0664 63.6211C23.0091 63.6107 22.9466 63.6029 22.8789 63.5977C22.8138 63.5924 22.7487 63.5898 22.6836 63.5898C22.5221 63.5898 22.3802 63.6133 22.2578 63.6602C22.1354 63.7044 22.0326 63.7695 21.9492 63.8555C21.8685 63.9388 21.806 64.0404 21.7617 64.1602C21.7174 64.2799 21.6914 64.4141 21.6836 64.5625L21.4688 64.5781C21.4688 64.3125 21.4948 64.0664 21.5469 63.8398C21.599 63.6133 21.6771 63.4141 21.7812 63.2422C21.888 63.0703 22.0208 62.9362 22.1797 62.8398C22.3411 62.7435 22.5273 62.6953 22.7383 62.6953C22.7956 62.6953 22.8568 62.7005 22.9219 62.7109C22.9896 62.7214 23.0404 62.7331 23.0742 62.7461ZM24.6719 62.7734V67H23.7266V62.7734H24.6719ZM23.6641 61.6641C23.6641 61.5208 23.7109 61.4023 23.8047 61.3086C23.901 61.2122 24.0339 61.1641 24.2031 61.1641C24.3698 61.1641 24.5013 61.2122 24.5977 61.3086C24.694 61.4023 24.7422 61.5208 24.7422 61.6641C24.7422 61.8047 24.694 61.9219 24.5977 62.0156C24.5013 62.1094 24.3698 62.1562 24.2031 62.1562C24.0339 62.1562 23.901 62.1094 23.8047 62.0156C23.7109 61.9219 23.6641 61.8047 23.6641 61.6641ZM27.0781 66.2539L28.1133 62.7734H29.0898L27.6211 67H27.0117L27.0781 66.2539ZM26.2852 62.7734L27.3398 66.2695L27.3906 67H26.7812L25.3047 62.7734H26.2852ZM31.9922 66.1523V64.1367C31.9922 63.9857 31.9648 63.8555 31.9102 63.7461C31.8555 63.6367 31.7721 63.5521 31.6602 63.4922C31.5508 63.4323 31.4128 63.4023 31.2461 63.4023C31.0924 63.4023 30.9596 63.4284 30.8477 63.4805C30.7357 63.5326 30.6484 63.6029 30.5859 63.6914C30.5234 63.7799 30.4922 63.8802 30.4922 63.9922H29.5547C29.5547 63.8255 29.5951 63.6641 29.6758 63.5078C29.7565 63.3516 29.8737 63.2122 30.0273 63.0898C30.181 62.9674 30.3646 62.8711 30.5781 62.8008C30.7917 62.7305 31.0312 62.6953 31.2969 62.6953C31.6146 62.6953 31.8958 62.7487 32.1406 62.8555C32.388 62.9622 32.582 63.1237 32.7227 63.3398C32.8659 63.5534 32.9375 63.8216 32.9375 64.1445V66.0234C32.9375 66.2161 32.9505 66.3893 32.9766 66.543C33.0052 66.694 33.0456 66.8255 33.0977 66.9375V67H32.1328C32.0885 66.8984 32.0534 66.7695 32.0273 66.6133C32.0039 66.4544 31.9922 66.3008 31.9922 66.1523ZM32.1289 64.4297L32.1367 65.0117H31.4609C31.2865 65.0117 31.1328 65.0286 31 65.0625C30.8672 65.0938 30.7565 65.1406 30.668 65.2031C30.5794 65.2656 30.513 65.3411 30.4688 65.4297C30.4245 65.5182 30.4023 65.6185 30.4023 65.7305C30.4023 65.8424 30.4284 65.9453 30.4805 66.0391C30.5326 66.1302 30.6081 66.2018 30.707 66.2539C30.8086 66.306 30.931 66.332 31.0742 66.332C31.2669 66.332 31.4349 66.293 31.5781 66.2148C31.724 66.1341 31.8385 66.0365 31.9219 65.9219C32.0052 65.8047 32.0495 65.694 32.0547 65.5898L32.3594 66.0078C32.3281 66.1146 32.2747 66.2292 32.1992 66.3516C32.1237 66.474 32.0247 66.5911 31.9023 66.7031C31.7826 66.8125 31.638 66.9023 31.4688 66.9727C31.3021 67.043 31.1094 67.0781 30.8906 67.0781C30.6146 67.0781 30.3685 67.0234 30.1523 66.9141C29.9362 66.8021 29.7669 66.6523 29.6445 66.4648C29.5221 66.2747 29.4609 66.0599 29.4609 65.8203C29.4609 65.5964 29.5026 65.3984 29.5859 65.2266C29.6719 65.0521 29.7969 64.9062 29.9609 64.7891C30.1276 64.6719 30.3307 64.5833 30.5703 64.5234C30.8099 64.4609 31.0833 64.4297 31.3906 64.4297H32.1289ZM35.6484 66.3281C35.8021 66.3281 35.9401 66.2982 36.0625 66.2383C36.1875 66.1758 36.2878 66.0898 36.3633 65.9805C36.4414 65.8711 36.4844 65.7448 36.4922 65.6016H37.3789C37.3737 65.875 37.293 66.1237 37.1367 66.3477C36.9805 66.5716 36.7734 66.75 36.5156 66.8828C36.2578 67.013 35.9727 67.0781 35.6602 67.0781C35.3372 67.0781 35.056 67.0234 34.8164 66.9141C34.5768 66.8021 34.3776 66.6484 34.2188 66.4531C34.0599 66.2578 33.9401 66.0326 33.8594 65.7773C33.7812 65.5221 33.7422 65.2487 33.7422 64.957V64.8203C33.7422 64.5286 33.7812 64.2552 33.8594 64C33.9401 63.7422 34.0599 63.5156 34.2188 63.3203C34.3776 63.125 34.5768 62.9727 34.8164 62.8633C35.056 62.7513 35.3359 62.6953 35.6562 62.6953C35.9948 62.6953 36.2917 62.763 36.5469 62.8984C36.8021 63.0312 37.0026 63.2174 37.1484 63.457C37.2969 63.694 37.3737 63.9701 37.3789 64.2852H36.4922C36.4844 64.1289 36.4453 63.9883 36.375 63.8633C36.3073 63.7357 36.2109 63.6341 36.0859 63.5586C35.9635 63.4831 35.8164 63.4453 35.6445 63.4453C35.4544 63.4453 35.2969 63.4844 35.1719 63.5625C35.0469 63.638 34.9492 63.7422 34.8789 63.875C34.8086 64.0052 34.7578 64.1523 34.7266 64.3164C34.6979 64.4779 34.6836 64.6458 34.6836 64.8203V64.957C34.6836 65.1315 34.6979 65.3008 34.7266 65.4648C34.7552 65.6289 34.8047 65.776 34.875 65.9062C34.9479 66.0339 35.0469 66.1367 35.1719 66.2148C35.2969 66.2904 35.4557 66.3281 35.6484 66.3281ZM39.3281 66.5391L40.4766 62.7734H41.4844L39.7891 67.6445C39.75 67.7487 39.6992 67.862 39.6367 67.9844C39.5742 68.1068 39.4922 68.2227 39.3906 68.332C39.2917 68.444 39.168 68.5339 39.0195 68.6016C38.8711 68.6719 38.6914 68.707 38.4805 68.707C38.3971 68.707 38.3164 68.6992 38.2383 68.6836C38.1628 68.6706 38.0911 68.6562 38.0234 68.6406L38.0195 67.9219C38.0456 67.9245 38.0768 67.9271 38.1133 67.9297C38.1523 67.9323 38.1836 67.9336 38.207 67.9336C38.3633 67.9336 38.4935 67.9141 38.5977 67.875C38.7018 67.8385 38.7865 67.7786 38.8516 67.6953C38.9193 67.612 38.9766 67.5 39.0234 67.3594L39.3281 66.5391ZM38.6797 62.7734L39.6836 65.9375L39.8516 66.9297L39.1992 67.0977L37.6641 62.7734H38.6797ZM45.9102 64.1953V64.9453H43.8438V64.1953H45.9102ZM50.9727 61.3125V67H50V61.3125H50.9727ZM52.7578 61.3125V62.0938H48.2305V61.3125H52.7578ZM54.9023 67.0781C54.5898 67.0781 54.3073 67.0273 54.0547 66.9258C53.8047 66.8216 53.5911 66.6771 53.4141 66.4922C53.2396 66.3073 53.1055 66.0898 53.0117 65.8398C52.918 65.5898 52.8711 65.3203 52.8711 65.0312V64.875C52.8711 64.5443 52.9193 64.2448 53.0156 63.9766C53.112 63.7083 53.2461 63.4792 53.418 63.2891C53.5898 63.0964 53.793 62.9492 54.0273 62.8477C54.2617 62.7461 54.5156 62.6953 54.7891 62.6953C55.0911 62.6953 55.3555 62.7461 55.582 62.8477C55.8086 62.9492 55.9961 63.0924 56.1445 63.2773C56.2956 63.4596 56.4076 63.6771 56.4805 63.9297C56.556 64.1823 56.5938 64.4609 56.5938 64.7656V65.168H53.3281V64.4922H55.6641V64.418C55.6589 64.2487 55.625 64.0898 55.5625 63.9414C55.5026 63.793 55.4102 63.6732 55.2852 63.582C55.1602 63.4909 54.9935 63.4453 54.7852 63.4453C54.6289 63.4453 54.4896 63.4792 54.3672 63.5469C54.2474 63.612 54.1471 63.707 54.0664 63.832C53.9857 63.957 53.9232 64.1081 53.8789 64.2852C53.8372 64.4596 53.8164 64.6562 53.8164 64.875V65.0312C53.8164 65.2161 53.8411 65.388 53.8906 65.5469C53.9427 65.7031 54.0182 65.8398 54.1172 65.957C54.2161 66.0742 54.3359 66.1667 54.4766 66.2344C54.6172 66.2995 54.7773 66.332 54.957 66.332C55.1836 66.332 55.3854 66.2865 55.5625 66.1953C55.7396 66.1042 55.8932 65.9753 56.0234 65.8086L56.5195 66.2891C56.4284 66.4219 56.3099 66.5495 56.1641 66.6719C56.0182 66.7917 55.8398 66.8893 55.6289 66.9648C55.4206 67.0404 55.1784 67.0781 54.9023 67.0781ZM58.2734 63.5781V67H57.332V62.7734H58.2305L58.2734 63.5781ZM59.5664 62.7461L59.5586 63.6211C59.5013 63.6107 59.4388 63.6029 59.3711 63.5977C59.306 63.5924 59.2409 63.5898 59.1758 63.5898C59.0143 63.5898 58.8724 63.6133 58.75 63.6602C58.6276 63.7044 58.5247 63.7695 58.4414 63.8555C58.3607 63.9388 58.2982 64.0404 58.2539 64.1602C58.2096 64.2799 58.1836 64.4141 58.1758 64.5625L57.9609 64.5781C57.9609 64.3125 57.987 64.0664 58.0391 63.8398C58.0911 63.6133 58.1693 63.4141 58.2734 63.2422C58.3802 63.0703 58.513 62.9362 58.6719 62.8398C58.8333 62.7435 59.0195 62.6953 59.2305 62.6953C59.2878 62.6953 59.349 62.7005 59.4141 62.7109C59.4818 62.7214 59.5326 62.7331 59.5664 62.7461ZM61.0977 63.6328V67H60.1562V62.7734H61.043L61.0977 63.6328ZM60.9453 64.7305L60.625 64.7266C60.625 64.4349 60.6615 64.1654 60.7344 63.918C60.8073 63.6706 60.9141 63.4557 61.0547 63.2734C61.1953 63.0885 61.3698 62.9466 61.5781 62.8477C61.7891 62.7461 62.0326 62.6953 62.3086 62.6953C62.5013 62.6953 62.6771 62.724 62.8359 62.7812C62.9974 62.8359 63.1367 62.9232 63.2539 63.043C63.3737 63.1628 63.4648 63.3164 63.5273 63.5039C63.5924 63.6914 63.625 63.918 63.625 64.1836V67H62.6836V64.2656C62.6836 64.0599 62.6523 63.8984 62.5898 63.7812C62.5299 63.6641 62.4427 63.5807 62.3281 63.5312C62.2161 63.4792 62.082 63.4531 61.9258 63.4531C61.7487 63.4531 61.5977 63.487 61.4727 63.5547C61.3503 63.6224 61.25 63.7148 61.1719 63.832C61.0938 63.9492 61.0365 64.0846 61 64.2383C60.9635 64.3919 60.9453 64.556 60.9453 64.7305ZM63.5664 64.4805L63.125 64.5781C63.125 64.3229 63.1602 64.082 63.2305 63.8555C63.3034 63.6263 63.4089 63.4258 63.5469 63.2539C63.6875 63.0794 63.8607 62.9427 64.0664 62.8438C64.2721 62.7448 64.5078 62.6953 64.7734 62.6953C64.9896 62.6953 65.1823 62.7253 65.3516 62.7852C65.5234 62.8424 65.6693 62.9336 65.7891 63.0586C65.9089 63.1836 66 63.3464 66.0625 63.5469C66.125 63.7448 66.1562 63.9844 66.1562 64.2656V67H65.2109V64.2617C65.2109 64.0482 65.1797 63.8828 65.1172 63.7656C65.0573 63.6484 64.9714 63.5677 64.8594 63.5234C64.7474 63.4766 64.6133 63.4531 64.457 63.4531C64.3112 63.4531 64.1823 63.4805 64.0703 63.5352C63.9609 63.5872 63.8685 63.6615 63.793 63.7578C63.7174 63.8516 63.6602 63.9596 63.6211 64.082C63.5846 64.2044 63.5664 64.3372 63.5664 64.4805ZM69.4961 65.8555C69.4961 65.7617 69.4727 65.6771 69.4258 65.6016C69.3789 65.5234 69.2891 65.4531 69.1562 65.3906C69.026 65.3281 68.8333 65.2708 68.5781 65.2188C68.3542 65.1693 68.1484 65.1107 67.9609 65.043C67.776 64.9727 67.6172 64.888 67.4844 64.7891C67.3516 64.6901 67.2487 64.5729 67.1758 64.4375C67.1029 64.3021 67.0664 64.1458 67.0664 63.9688C67.0664 63.7969 67.1042 63.6341 67.1797 63.4805C67.2552 63.3268 67.3633 63.1914 67.5039 63.0742C67.6445 62.957 67.8151 62.8646 68.0156 62.7969C68.2188 62.7292 68.4453 62.6953 68.6953 62.6953C69.0495 62.6953 69.3529 62.7552 69.6055 62.875C69.8607 62.9922 70.056 63.1523 70.1914 63.3555C70.3268 63.556 70.3945 63.7826 70.3945 64.0352H69.4531C69.4531 63.9232 69.4245 63.819 69.3672 63.7227C69.3125 63.6237 69.2292 63.5443 69.1172 63.4844C69.0052 63.4219 68.8646 63.3906 68.6953 63.3906C68.5339 63.3906 68.3997 63.4167 68.293 63.4688C68.1888 63.5182 68.1107 63.5833 68.0586 63.6641C68.0091 63.7448 67.9844 63.8333 67.9844 63.9297C67.9844 64 67.9974 64.0638 68.0234 64.1211C68.0521 64.1758 68.099 64.2266 68.1641 64.2734C68.2292 64.3177 68.3177 64.3594 68.4297 64.3984C68.5443 64.4375 68.6875 64.4753 68.8594 64.5117C69.1823 64.5794 69.4596 64.6667 69.6914 64.7734C69.9258 64.8776 70.1055 65.013 70.2305 65.1797C70.3555 65.3438 70.418 65.5521 70.418 65.8047C70.418 65.9922 70.3776 66.1641 70.2969 66.3203C70.2188 66.474 70.1042 66.6081 69.9531 66.7227C69.8021 66.8346 69.6211 66.9219 69.4102 66.9844C69.2018 67.0469 68.9674 67.0781 68.707 67.0781C68.3242 67.0781 68 67.0104 67.7344 66.875C67.4688 66.737 67.2669 66.5612 67.1289 66.3477C66.9935 66.1315 66.9258 65.9076 66.9258 65.6758H67.8359C67.8464 65.8503 67.8945 65.9896 67.9805 66.0938C68.069 66.1953 68.1784 66.2695 68.3086 66.3164C68.4414 66.3607 68.5781 66.3828 68.7188 66.3828C68.888 66.3828 69.0299 66.3607 69.1445 66.3164C69.2591 66.2695 69.3464 66.207 69.4062 66.1289C69.4661 66.0482 69.4961 65.957 69.4961 65.8555Z" fill="#A6A6A6"/>
</g>
<defs>
<filter id="filter0_d_861_3182" x="0" y="0" width="308" height="80" filterUnits="userSpaceOnUse" color-interpolation-filters="sRGB">
<feFlood flood-opacity="0" result="BackgroundImageFix"/>
<feColorMatrix in="SourceAlpha" type="matrix" values="0 0 0 0 0 0 0 0 0 0 0 0 0 0 0 0 0 0 127 0" result="hardAlpha"/>
<feOffset dy="1"/>
<feGaussianBlur stdDeviation="1"/>
<feColorMatrix type="matrix" values="0 0 0 0 0 0 0 0 0 0 0 0 0 0 0 0 0 0 0.1 0"/>
<feBlend mode="normal" in2="BackgroundImageFix" result="effect1_dropShadow_861_3182"/>
<feBlend mode="normal" in="SourceGraphic" in2="effect1_dropShadow_861_3182" result="shape"/>
</filter>
<clipPath id="clip0_861_3182">
<rect width="48" height="46" fill="white" transform="translate(19 10)"/>
</clipPath>
</defs>
</svg>
